<svg width="24" height="24" viewBox="0 0 24 24" fill="none" xmlns="http://www.w3.org/2000/svg">
<g clip-path="url(#clip0_77_187)">
<path d="M24.2187 21.646L18.0137 15.441C19.1807 13.836 19.8707 11.862 19.8707 9.73C19.8707 4.365 15.5057 0 10.1397 0C4.77467 0 0.409668 4.365 0.409668 9.73C0.409668 15.096 4.77467 19.46 10.1397 19.46C12.1737 19.46 14.0627 18.833 15.6267 17.762L21.8647 24L24.2187 21.646V21.646ZM3.26367 9.73C3.26367 5.938 6.34867 2.853 10.1407 2.853C13.9327 2.853 17.0177 5.938 17.0177 9.73C17.0177 13.522 13.9327 16.607 10.1407 16.607C6.34767 16.607 3.26367 13.522 3.26367 9.73V9.73Z" fill="#E7E7EA"/>
</g>
<defs>
<clipPath id="clip0_77_187">
<rect width="24" height="24" fill="white"/>
</clipPath>
</defs>
</svg>
