<svg width="16" height="16" viewBox="0 0 16 16" fill="none" xmlns="http://www.w3.org/2000/svg">
<path d="M3.26786 6.5H12.7321C12.8795 6.5 13 6.62656 13 6.78125V12.875C13 13.4961 12.5201 14 11.9286 14H4.07143C3.47991 14 3 13.4961 3 12.875V6.78125C3 6.62656 3.12054 6.5 3.26786 6.5ZM13 5.46875V4.625C13 4.00391 12.5201 3.5 11.9286 3.5H10.8571V2.28125C10.8571 2.12656 10.7366 2 10.5893 2H9.69643C9.54911 2 9.42857 2.12656 9.42857 2.28125V3.5H6.57143V2.28125C6.57143 2.12656 6.45089 2 6.30357 2H5.41071C5.26339 2 5.14286 2.12656 5.14286 2.28125V3.5H4.07143C3.47991 3.5 3 4.00391 3 4.625V5.46875C3 5.62344 3.12054 5.75 3.26786 5.75H12.7321C12.8795 5.75 13 5.62344 13 5.46875Z" fill="#FDFDFD"/>
</svg>
