<svg width="159" height="43" viewBox="0 0 159 43" fill="none" xmlns="http://www.w3.org/2000/svg">
<path d="M19.775 23.85V34H14.49V23.71C14.49 22.2167 14.2567 21.12 13.79 20.42C13.3467 19.72 12.6117 19.37 11.585 19.37C10.5817 19.37 9.68333 19.755 8.89 20.525C8.12 21.2717 7.735 22.38 7.735 23.85V34H2.485V15.17H7.735V17.305C9.18167 15.6717 10.8383 14.855 12.705 14.855C13.895 14.855 14.9683 15.205 15.925 15.905C16.905 16.605 17.64 17.4567 18.13 18.46C18.8533 17.3167 19.8217 16.43 21.035 15.8C22.2717 15.17 23.5083 14.855 24.745 14.855C26.9617 14.855 28.7467 15.52 30.1 16.85C31.4533 18.1567 32.13 20.0583 32.13 22.555V34H26.845V23.71C26.845 20.8167 25.7833 19.37 23.66 19.37C22.61 19.37 21.7 19.755 20.93 20.525C20.16 21.2717 19.775 22.38 19.775 23.85ZM52.8989 34H47.9639V31.725C46.6106 33.4283 44.9306 34.28 42.9239 34.28C40.9406 34.28 39.2723 33.7083 37.9189 32.565C36.5656 31.3983 35.8889 29.8583 35.8889 27.945C35.8889 26.0083 36.5889 24.5617 37.9889 23.605C39.3889 22.6483 41.3023 22.17 43.7289 22.17H47.6489V22.065C47.6489 20.0583 46.5873 19.055 44.4639 19.055C43.5539 19.055 42.5856 19.2417 41.5589 19.615C40.5556 19.965 39.7039 20.4083 39.0039 20.945L36.6589 17.55C39.1323 15.7533 41.9556 14.855 45.1289 14.855C47.4156 14.855 49.2823 15.4267 50.7289 16.57C52.1756 17.7133 52.8989 19.5217 52.8989 21.995V34ZM47.6139 26.825V25.915H44.3239C42.2239 25.915 41.1739 26.5683 41.1739 27.875C41.1739 28.5517 41.4189 29.0767 41.9089 29.45C42.4223 29.8 43.1456 29.975 44.0789 29.975C45.0123 29.975 45.8289 29.695 46.5289 29.135C47.2523 28.5517 47.6139 27.7817 47.6139 26.825ZM62.9352 23.5V34H57.6852V15.17H62.9352V17.27C64.5219 15.66 66.3069 14.855 68.2902 14.855C70.2735 14.855 71.9302 15.555 73.2602 16.955C74.6135 18.355 75.2902 20.2217 75.2902 22.555V34H70.0402V23.36C70.0402 20.4667 68.9785 19.02 66.8552 19.02C65.8052 19.02 64.8835 19.405 64.0902 20.175C63.3202 20.9217 62.9352 22.03 62.9352 23.5ZM96.0337 34H91.0987V31.725C89.7454 33.4283 88.0654 34.28 86.0587 34.28C84.0754 34.28 82.407 33.7083 81.0537 32.565C79.7004 31.3983 79.0237 29.8583 79.0237 27.945C79.0237 26.0083 79.7237 24.5617 81.1237 23.605C82.5237 22.6483 84.437 22.17 86.8637 22.17H90.7837V22.065C90.7837 20.0583 89.722 19.055 87.5987 19.055C86.6887 19.055 85.7204 19.2417 84.6937 19.615C83.6904 19.965 82.8387 20.4083 82.1387 20.945L79.7937 17.55C82.267 15.7533 85.0904 14.855 88.2637 14.855C90.5504 14.855 92.417 15.4267 93.8637 16.57C95.3104 17.7133 96.0337 19.5217 96.0337 21.995V34ZM90.7487 26.825V25.915H87.4587C85.3587 25.915 84.3087 26.5683 84.3087 27.875C84.3087 28.5517 84.5537 29.0767 85.0437 29.45C85.557 29.8 86.2804 29.975 87.2137 29.975C88.147 29.975 88.9637 29.695 89.6637 29.135C90.387 28.5517 90.7487 27.7817 90.7487 26.825ZM114.015 24.2C114.015 22.6833 113.595 21.4933 112.755 20.63C111.915 19.7667 110.877 19.335 109.64 19.335C108.403 19.335 107.33 19.7667 106.42 20.63C105.533 21.4933 105.09 22.6717 105.09 24.165C105.09 25.6583 105.522 26.8717 106.385 27.805C107.272 28.715 108.345 29.17 109.605 29.17C110.865 29.17 111.915 28.715 112.755 27.805C113.595 26.895 114.015 25.6933 114.015 24.2ZM114.75 30.815C113.093 32.6583 111.028 33.58 108.555 33.58C106.105 33.58 104.028 32.7517 102.325 31.095C100.645 29.415 99.805 27.1867 99.805 24.41C99.805 21.61 100.668 19.3233 102.395 17.55C104.145 15.7533 106.14 14.855 108.38 14.855C110.62 14.855 112.475 15.7767 113.945 17.62V15.135H119.195V31.55C119.195 33.23 118.903 34.7233 118.32 36.03C117.737 37.3367 116.955 38.3633 115.975 39.11C114.038 40.65 111.752 41.42 109.115 41.42C107.715 41.42 106.28 41.1867 104.81 40.72C103.363 40.2767 102.092 39.635 100.995 38.795L103.025 34.84C104.752 36.1467 106.572 36.8 108.485 36.8C110.422 36.8 111.95 36.3217 113.07 35.365C114.19 34.4083 114.75 32.8917 114.75 30.815ZM140.475 31.27C138.351 33.2767 135.855 34.28 132.985 34.28C130.138 34.28 127.781 33.405 125.915 31.655C124.048 29.8817 123.115 27.5133 123.115 24.55C123.115 21.5867 124.06 19.23 125.95 17.48C127.863 15.73 130.115 14.855 132.705 14.855C135.295 14.855 137.488 15.6367 139.285 17.2C141.105 18.7633 142.015 20.91 142.015 23.64V26.44H128.295C128.458 27.4667 128.995 28.3067 129.905 28.96C130.815 29.6133 131.841 29.94 132.985 29.94C134.828 29.94 136.345 29.3217 137.535 28.085L140.475 31.27ZM136.695 22.695C136.578 21.575 136.158 20.7117 135.435 20.105C134.711 19.4983 133.825 19.195 132.775 19.195C131.748 19.195 130.803 19.51 129.94 20.14C129.076 20.77 128.575 21.6217 128.435 22.695H136.695Z" fill="white"/>
<circle r="6" transform="matrix(-1 0 0 1 153 25)" fill="#FDF1FF"/>
</svg>
