<svg width="16" height="16" viewBox="0 0 16 16" fill="none" xmlns="http://www.w3.org/2000/svg">
<path d="M13.8126 2.18825C13.725 2.10062 13.6139 2.0402 13.4927 2.01425C13.3715 1.9883 13.2454 1.99793 13.1295 2.04199L2.41424 6.09781H2.41209C2.28854 6.14533 2.18268 6.22984 2.10895 6.33978C2.03522 6.44972 1.99723 6.57974 2.00016 6.71208C2.00309 6.84443 2.0468 6.97264 2.12532 7.07921C2.20384 7.18578 2.31335 7.26551 2.43888 7.30752L2.44986 7.311L6.12762 8.88152C6.19935 8.9033 6.27554 8.90588 6.34858 8.88901C6.42162 8.87213 6.48896 8.83639 6.54387 8.78536L12.4465 3.28518C12.4641 3.26759 12.485 3.25363 12.5079 3.24412C12.5309 3.2346 12.5556 3.2297 12.5804 3.2297C12.6053 3.2297 12.6299 3.2346 12.6529 3.24412C12.6759 3.25363 12.6968 3.26759 12.7144 3.28518C12.7319 3.30276 12.7459 3.32364 12.7554 3.34663C12.7649 3.36961 12.7698 3.39424 12.7698 3.41911C12.7698 3.44398 12.7649 3.46862 12.7554 3.4916C12.7459 3.51458 12.7319 3.53546 12.7144 3.55305L7.21407 9.45316C7.16303 9.50807 7.1273 9.57541 7.11042 9.64846C7.09355 9.7215 7.09613 9.79769 7.1179 9.86943L8.68892 13.5494C8.69053 13.5548 8.69213 13.5596 8.69401 13.5647C8.77972 13.813 8.99669 13.9882 9.25893 14H9.28572C9.4181 14.0007 9.54765 13.9617 9.65753 13.8878C9.7674 13.8139 9.85251 13.7087 9.9018 13.5859L13.957 2.87319C14.0017 2.75728 14.0118 2.6309 13.9862 2.50935C13.9606 2.38779 13.9003 2.27626 13.8126 2.18825Z" fill="#FDFDFD"/>
</svg>
