<svg width="16" height="16" viewBox="0 0 16 16" fill="none" xmlns="http://www.w3.org/2000/svg">
<path d="M12.6774 9.5C13.9626 9.5 15 10.505 15 11.75C15 12.995 13.9626 14 12.6774 14C11.3923 14 10.3548 12.995 10.3548 11.75C10.3548 11.57 10.3781 11.405 10.4245 11.2325L7.03355 9.5075C6.60774 9.965 6.00387 10.25 5.32258 10.25C4.03742 10.25 3 9.245 3 8C3 6.755 4.03742 5.75 5.32258 5.75C6.00387 5.75 6.60774 6.0425 7.03355 6.4925L10.4245 4.7675C10.3781 4.595 10.3548 4.43 10.3548 4.25C10.3548 3.005 11.3923 2 12.6774 2C13.9626 2 15 3.005 15 4.25C15 5.495 13.9626 6.5 12.6774 6.5C11.9961 6.5 11.3923 6.2075 10.9665 5.7575L7.57548 7.4825C7.66925 7.82152 7.66925 8.17848 7.57548 8.5175L10.9665 10.2425C11.3923 9.785 11.9961 9.5 12.6774 9.5Z" fill="#FDFDFD"/>
</svg>
