<svg width="16" height="16" viewBox="0 0 16 16" fill="none" xmlns="http://www.w3.org/2000/svg">
<path d="M8 2C4.69169 2 2 4.69146 2 8C2 11.3085 4.69169 14 8 14C11.3083 14 14 11.3085 14 8C14 4.69146 11.3083 2 8 2ZM11.345 5.999L7.65269 10.1528C7.56177 10.2551 7.43508 10.3077 7.30746 10.3077C7.20615 10.3077 7.10438 10.2745 7.01923 10.2066L4.71154 8.36046C4.51262 8.20146 4.48031 7.91092 4.63954 7.71177C4.79854 7.51262 5.08931 7.48031 5.28823 7.63954L7.25369 9.21177L10.655 5.38538C10.8239 5.19477 11.1161 5.17769 11.3065 5.34708C11.4971 5.51669 11.5144 5.80838 11.345 5.999Z" fill="#FDFDFD"/>
</svg>
